<svg xmlns="http://www.w3.org/2000/svg" width="560" height="545" viewBox="0 0 560 545"><rect width="100%" height="100%" fill="white"/><defs><marker id="arrow" viewBox="0 0 10 10" refX="9" refY="5" markerWidth="7" markerHeight="7" orient="auto-start-reverse"><path d="M 0 0 L 10 5 L 0 10 z" fill="#17324d"/></marker></defs><g fill="none" stroke="#17324d" stroke-width="2.5" stroke-linejoin="round"><rect x="15" y="15" width="530" height="235" fill="#f4f8fb" rx="15"/><text x="43" y="45" fill="#17324d" stroke="none" font-size="20" font-family="Arial, sans-serif" text-anchor="middle">1</text><rect x="92" y="40" width="338" height="74" fill="white" rx="15"/><text x="261" y="72" fill="#17324d" stroke="none" font-size="24" font-family="Arial, sans-serif" text-anchor="middle">¿Dónde dejé</text><text x="261" y="101" fill="#17324d" stroke="none" font-size="24" font-family="Arial, sans-serif" text-anchor="middle">mis lentes?</text><circle cx="240" cy="162" r="29" fill="#ffe9d6"/><path d="M202,242 Q205,196 240,196 Q275,196 278,242" fill="#cbe1d9"/><circle cx="231" cy="160" r="2" fill="#17324d"/><circle cx="249" cy="160" r="2" fill="#17324d"/><path d="M232,174 Q240,180 248,174"/><rect x="212" y="124" width="21" height="13" fill="none" rx="4"/><rect x="245" y="124" width="21" height="13" fill="none" rx="4"/><path d="M233,131 L245,131" /><rect x="15" y="265" width="530" height="260" fill="#f4f8fb" rx="15"/><text x="43" y="294" fill="#17324d" stroke="none" font-size="20" font-family="Arial, sans-serif" text-anchor="middle">2</text><rect x="222" y="285" width="285" height="77" fill="white" rx="15"/><text x="367" y="319" fill="#17324d" stroke="none" font-size="24" font-family="Arial, sans-serif" text-anchor="middle">Un poco</text><text x="367" y="347" fill="#17324d" stroke="none" font-size="24" font-family="Arial, sans-serif" text-anchor="middle">más arriba.</text><circle cx="155" cy="422" r="29" fill="#ffe9d6"/><path d="M117,502 Q120,456 155,456 Q190,456 193,502" fill="#cbe1d9"/><circle cx="146" cy="420" r="2" fill="#17324d"/><circle cx="164" cy="420" r="2" fill="#17324d"/><path d="M147,434 Q155,440 163,434"/><rect x="127" y="384" width="21" height="13" fill="none" rx="4"/><rect x="160" y="384" width="21" height="13" fill="none" rx="4"/><path d="M148,391 L160,391" /><circle cx="368" cy="422" r="29" fill="#ffe9d6"/><path d="M330,502 Q333,456 368,456 Q403,456 406,502" fill="#cbe1d9"/><circle cx="359" cy="420" r="2" fill="#17324d"/><circle cx="377" cy="420" r="2" fill="#17324d"/><path d="M360,434 Q368,440 376,434"/><path d="M332,466 L215,388" /><circle cx="213" cy="386" r="4" fill="#17324d"/></g></svg>