<svg xmlns="http://www.w3.org/2000/svg" width="530" height="370" viewBox="0 0 530 370"><rect width="100%" height="100%" fill="white"/><defs><marker id="arrow" viewBox="0 0 10 10" refX="9" refY="5" markerWidth="7" markerHeight="7" orient="auto-start-reverse"><path d="M 0 0 L 10 5 L 0 10 z" fill="#17324d"/></marker></defs><g fill="none" stroke="#17324d" stroke-width="2.5" stroke-linejoin="round"><path d="M80,335 L80,35" /><polygon points="80.00,35.00 85.50,48.00 74.50,48.00" fill="#17324d" stroke="none"/><path d="M45,300 L470,300" /><polygon points="470.00,300.00 457.00,305.50 457.00,294.50" fill="#17324d" stroke="none"/><text x="485" y="307" fill="#17324d" stroke="none" font-size="24" font-family="Arial, sans-serif" text-anchor="middle">x</text><text x="62" y="34" fill="#17324d" stroke="none" font-size="24" font-family="Arial, sans-serif" text-anchor="middle">y</text><path d="M80,105 L340,105" stroke-dasharray="6 5" stroke="#84939f"/><path d="M340,300 L340,105" stroke-dasharray="6 5" stroke="#84939f"/><path d="M30,257.615 L435,58.231" /><circle cx="80" cy="233" r="5" fill="#17324d"/><circle cx="340" cy="105" r="5" fill="#17324d"/><text x="140" y="266" fill="#17324d" stroke="none" font-size="22" font-family="Arial, sans-serif" text-anchor="middle">(0, k)</text><text x="397" y="107" fill="#17324d" stroke="none" font-size="22" font-family="Arial, sans-serif" text-anchor="middle">(d, d)</text><text x="57" y="114" fill="#17324d" stroke="none" font-size="22" font-family="Arial, sans-serif" text-anchor="middle">d</text><text x="341" y="330" fill="#17324d" stroke="none" font-size="22" font-family="Arial, sans-serif" text-anchor="middle">d</text><text x="60" y="326" fill="#17324d" stroke="none" font-size="22" font-family="Arial, sans-serif" text-anchor="middle">0</text></g></svg>