<svg xmlns="http://www.w3.org/2000/svg" width="530" height="340" viewBox="0 0 530 340"><rect width="100%" height="100%" fill="white"/><defs><marker id="arrow" viewBox="0 0 10 10" refX="9" refY="5" markerWidth="7" markerHeight="7" orient="auto-start-reverse"><path d="M 0 0 L 10 5 L 0 10 z" fill="#17324d"/></marker></defs><g fill="none" stroke="#17324d" stroke-width="2.5" stroke-linejoin="round"><rect x="45" y="70" width="440" height="205" fill="#eef7ff" /><path d="M265,70 L265,275" stroke-dasharray="5 5" stroke-width="5"/><circle cx="85" cy="125" r="6" fill="#297763"/><circle cx="130" cy="180" r="6" fill="#297763"/><circle cx="185" cy="145" r="6" fill="#297763"/><circle cx="210" cy="235" r="6" fill="#297763"/><circle cx="100" cy="240" r="6" fill="#297763"/><circle cx="165" cy="100" r="6" fill="#297763"/><circle cx="300" cy="100" r="6" fill="#297763"/><circle cx="345" cy="110" r="6" fill="#297763"/><circle cx="395" cy="95" r="6" fill="#297763"/><circle cx="440" cy="110" r="6" fill="#297763"/><circle cx="310" cy="155" r="6" fill="#297763"/><circle cx="360" cy="165" r="6" fill="#297763"/><circle cx="420" cy="160" r="6" fill="#297763"/><circle cx="465" cy="155" r="6" fill="#297763"/><circle cx="300" cy="210" r="6" fill="#297763"/><circle cx="355" cy="220" r="6" fill="#297763"/><circle cx="408" cy="210" r="6" fill="#297763"/><circle cx="455" cy="215" r="6" fill="#297763"/><circle cx="323" cy="250" r="6" fill="#297763"/><circle cx="380" cy="252" r="6" fill="#297763"/><circle cx="440" cy="254" r="6" fill="#297763"/><text x="155" y="44" fill="#17324d" stroke="none" font-size="24" font-family="Arial, sans-serif" text-anchor="middle">Medio 1</text><text x="375" y="44" fill="#17324d" stroke="none" font-size="24" font-family="Arial, sans-serif" text-anchor="middle">Medio 2</text><text x="265" y="314" fill="#17324d" stroke="none" font-size="20" font-family="Arial, sans-serif" text-anchor="middle">Membrana: pasa agua, no soluto</text></g></svg>