<svg xmlns="http://www.w3.org/2000/svg" width="470" height="390" viewBox="0 0 470 390"><rect width="100%" height="100%" fill="white"/><defs><marker id="arrow" viewBox="0 0 10 10" refX="9" refY="5" markerWidth="7" markerHeight="7" orient="auto-start-reverse"><path d="M 0 0 L 10 5 L 0 10 z" fill="#17324d"/></marker></defs><g fill="none" stroke="#17324d" stroke-width="2.5" stroke-linejoin="round"><rect x="95" y="65" width="270" height="270" fill="#f6f9fc" /><path d="M95,65 L365,335" /><path d="M95,65 L365,137.34628195640312" /><path d="M157.00,65.00 A62,62 0 0 1 154.89,81.05"/><path d="M187.73,89.85 A96,96 0 0 1 162.88,132.88"/><path d="M365.00,177.35 A40,40 0 0 1 326.36,126.99"/><text x="77" y="358" fill="#17324d" stroke="none" font-size="24" font-family="Arial, sans-serif" text-anchor="middle">A</text><text x="384" y="358" fill="#17324d" stroke="none" font-size="24" font-family="Arial, sans-serif" text-anchor="middle">B</text><text x="386" y="62" fill="#17324d" stroke="none" font-size="24" font-family="Arial, sans-serif" text-anchor="middle">C</text><text x="74" y="62" fill="#17324d" stroke="none" font-size="24" font-family="Arial, sans-serif" text-anchor="middle">D</text><text x="388" y="145.34628195640312" fill="#17324d" stroke="none" font-size="24" font-family="Arial, sans-serif" text-anchor="middle">E</text><text x="174" y="78" fill="#17324d" stroke="none" font-size="24" font-family="Arial, sans-serif" text-anchor="middle">α</text><text x="204" y="129" fill="#17324d" stroke="none" font-size="24" font-family="Arial, sans-serif" text-anchor="middle">2α</text><text x="330" y="184" fill="#17324d" stroke="none" font-size="24" font-family="Arial, sans-serif" text-anchor="middle">x</text></g></svg>